<svg version="1.1" id="Layer_1" xmlns="http://www.w3.org/2000/svg" xmlns:xlink="http://www.w3.org/1999/xlink" x="0px" y="0px"
	 width="100%" viewBox="0 0 1920 1080" enable-background="new 0 0 1920 1080" xml:space="preserve">
<path fill="#000000" opacity="1.000000" stroke="none" 
	d="
M1255.000000,1081.000000 
	C836.666748,1081.000000 418.833496,1081.000000 1.000168,1081.000000 
	C1.000112,721.000122 1.000112,361.000275 1.000056,1.000313 
	C640.999756,1.000209 1280.999512,1.000209 1920.999512,1.000104 
	C1920.999634,360.999664 1920.999634,720.999329 1920.999756,1080.999512 
	C1699.166626,1081.000000 1477.333374,1081.000000 1255.000000,1081.000000 
M1274.023682,546.915649 
	C1274.016724,589.242493 1273.968994,631.569397 1274.070190,673.895935 
	C1274.079590,677.841309 1273.239136,679.662231 1269.015015,681.245239 
	C1256.394043,685.974731 1244.175903,691.770752 1231.728271,696.977356 
	C1228.396851,698.370728 1227.242310,700.351929 1228.370239,703.790649 
	C1271.541138,703.790649 1314.646851,703.790649 1357.845215,703.790649 
	C1357.845215,701.793396 1357.845215,700.006042 1357.845215,698.132874 
	C1343.766724,692.401733 1329.877197,686.464355 1315.744019,681.177734 
	C1311.838257,679.716736 1310.914917,677.916565 1310.925781,674.132629 
	C1311.038208,635.138733 1310.994995,596.144409 1310.994995,557.150208 
	C1310.994995,555.538330 1310.994995,553.926392 1310.994995,552.165100 
	C1330.896729,552.165100 1350.323486,552.165100 1369.762451,552.165100 
	C1376.822510,567.656860 1383.783325,583.034241 1390.831177,598.371704 
	C1400.831055,620.133606 1410.920898,641.854248 1420.913940,663.619263 
	C1423.521240,669.297974 1426.071045,675.015991 1428.271729,680.857483 
	C1428.726196,682.063721 1427.989136,684.410950 1426.980347,685.356506 
	C1422.566162,689.494080 1417.695679,693.148438 1413.327759,697.330200 
	C1411.830078,698.764160 1411.316040,701.225403 1410.068359,703.804810 
	C1446.148315,703.804810 1480.925415,703.804810 1517.091553,703.804810 
	C1515.754639,701.124390 1515.233643,697.892944 1513.627075,697.208069 
	C1501.828125,692.178345 1489.746826,687.813843 1477.903564,682.882019 
	C1474.360229,681.406372 1469.686279,679.565308 1468.251221,676.582581 
	C1453.271484,645.447205 1438.845337,614.045471 1424.267700,582.716614 
	C1419.219482,571.867676 1414.177368,561.015991 1409.067139,550.025269 
	C1410.033569,549.557617 1410.576416,549.125488 1411.172607,549.031189 
	C1428.050293,546.362000 1443.935181,540.875977 1458.115112,531.288208 
	C1482.182129,515.015198 1493.946411,491.991425 1493.899170,463.054626 
	C1493.887817,456.057343 1493.033936,449.002716 1491.925537,442.077209 
	C1488.800293,422.551575 1479.074097,406.397064 1463.662354,394.527283 
	C1442.439209,378.181763 1417.164917,371.665222 1390.958862,371.250305 
	C1338.313232,370.416840 1285.645020,371.002838 1232.986206,371.003052 
	C1231.364746,371.003052 1229.743286,371.003052 1228.359985,371.003052 
	C1227.261230,374.955536 1228.869141,376.777802 1231.874146,378.498169 
	C1245.002075,386.014160 1257.995850,393.766357 1270.972046,401.543610 
	C1273.251343,402.909698 1275.166992,404.273529 1275.141235,407.907928 
	C1274.894653,442.567474 1274.971558,477.229309 1274.195068,512.339966 
	C1274.186035,523.555481 1274.177002,534.770996 1274.023682,546.915649 
M570.033813,617.661682 
	C570.670959,616.524170 571.484680,615.450073 571.918945,614.239807 
	C579.343689,593.548828 584.168762,572.160034 584.708557,550.270447 
	C585.129028,533.219727 584.157837,515.929749 581.664124,499.062592 
	C578.330261,476.511902 570.565247,455.111755 558.778992,435.401154 
	C544.347107,411.266235 525.051941,392.060638 499.993805,379.093048 
	C484.839294,371.250580 468.649384,366.729065 451.571106,364.851074 
	C436.519745,363.195984 421.506622,363.251556 406.864105,366.287445 
	C386.726868,370.462646 368.002106,378.242432 351.219452,390.826660 
	C333.368744,404.211792 319.333252,420.517853 308.578339,439.886688 
	C294.454102,465.323486 287.038086,492.833160 285.245483,521.617065 
	C284.132050,539.495422 284.664246,557.470093 287.759186,575.386963 
	C290.689545,592.351135 295.054321,608.801331 302.244873,624.276001 
	C311.338867,643.846863 323.498474,661.336914 340.038544,675.743286 
	C353.927551,687.840637 369.270508,697.183960 386.626923,702.867737 
	C405.591156,709.078064 425.013580,712.046387 445.225220,710.224426 
	C457.609802,709.108032 469.854187,707.557617 481.509705,703.599182 
	C504.389801,695.828674 524.176331,683.203796 540.645508,665.100403 
	C553.298401,651.192017 562.444580,635.405029 570.033813,617.661682 
M582.794739,375.219116 
	C583.493286,375.927856 584.102112,376.764740 584.903809,377.326172 
	C596.950317,385.761749 608.909607,394.331238 621.170410,402.444519 
	C624.088562,404.375519 625.064270,406.216217 625.056946,409.511597 
	C624.969116,448.843201 625.118591,488.175537 624.957092,527.506653 
	C624.855469,552.257324 624.750549,577.023804 623.710083,601.743713 
	C623.448730,607.952087 620.100403,614.265381 617.228577,620.063782 
	C614.287415,626.002014 607.976624,625.139038 601.517273,625.025146 
	C620.925720,644.022949 638.139038,664.013794 659.973633,678.851135 
	C670.863586,686.251282 682.156128,693.489685 694.177124,698.701172 
	C716.327026,708.303772 739.677612,712.163086 764.083374,710.226562 
	C776.836304,709.214722 789.202393,707.199219 801.251892,703.239624 
	C819.513550,697.238831 835.695557,687.521362 850.908325,675.771362 
	C870.084900,660.959656 886.186401,643.136902 902.871826,625.518494 
	C898.690002,624.993103 894.487244,625.389526 891.143311,623.881470 
	C878.183533,618.036865 871.355713,606.851318 871.236267,593.380859 
	C870.692566,532.054749 870.974915,470.721100 871.121094,409.390533 
	C871.124939,407.768555 872.576599,405.546295 874.009521,404.624939 
	C888.244995,395.471802 902.665466,386.606201 916.893127,377.441254 
	C918.621277,376.328033 919.522217,373.930603 921.488831,371.170959 
	C880.244751,371.170959 840.792480,371.170959 800.337585,371.170959 
	C801.237183,373.376495 801.444824,375.959381 802.760254,376.791687 
	C817.058838,385.839325 831.469055,394.716461 846.001160,403.384796 
	C849.479919,405.459869 851.097351,407.701904 851.087158,411.917084 
	C850.958008,465.414673 851.110474,518.913086 850.911621,572.410217 
	C850.871338,583.248047 849.874817,594.098938 848.953064,604.912598 
	C847.762634,618.878601 843.698547,632.000305 837.219177,644.503296 
	C822.105591,673.667542 797.085571,687.306519 765.498413,689.761169 
	C754.615845,690.606812 743.389160,689.497131 732.545044,687.821533 
	C713.264954,684.842468 696.987122,675.993713 684.152649,660.802673 
	C668.194580,641.914673 661.615479,619.420349 661.286377,595.702942 
	C660.428589,533.883911 661.027161,472.045074 660.921997,410.214355 
	C660.916199,406.780701 662.266235,404.798645 664.880493,402.972900 
	C677.081909,394.451904 689.255371,385.888214 701.299500,377.147827 
	C702.870972,376.007355 703.636719,373.756622 705.334839,371.167694 
	C663.228149,371.167694 622.767761,371.167694 582.176025,371.167694 
	C582.176025,372.413513 582.176025,373.546112 582.794739,375.219116 
M1730.996094,449.534668 
	C1721.174927,423.423584 1711.353760,397.312531 1701.498779,371.111481 
	C1688.157104,371.111481 1674.838745,371.111481 1661.129395,371.111481 
	C1664.160645,379.002869 1667.331787,386.702637 1670.045654,394.560303 
	C1671.384766,398.437103 1673.434692,403.037750 1672.456299,406.558838 
	C1669.805420,416.099670 1665.559448,425.185394 1662.208740,434.545654 
	C1648.910522,471.693268 1635.720703,508.879700 1622.475586,546.046326 
	C1608.317261,585.775085 1594.194458,625.516724 1579.882690,665.190186 
	C1578.618896,668.693726 1576.853394,672.993530 1573.986084,674.772278 
	C1561.555054,682.484253 1548.682739,689.497009 1535.843628,696.531494 
	C1532.622070,698.296631 1531.305786,700.298523 1532.287964,703.757690 
	C1568.337280,703.757690 1604.112549,703.757690 1639.701172,703.757690 
	C1640.846313,699.516418 1639.425537,697.415955 1635.462524,695.661621 
	C1626.023315,691.483337 1616.890747,686.609375 1607.660400,681.964539 
	C1604.379761,680.313660 1601.174561,678.512817 1598.183228,676.913269 
	C1607.732666,648.260071 1617.108643,620.127136 1626.482666,592.000183 
	C1630.795654,592.000183 1634.790283,592.000122 1638.784912,592.000122 
	C1673.113037,592.000122 1707.441162,592.046936 1741.768921,591.925354 
	C1745.076538,591.913635 1746.806885,592.552185 1747.702148,596.071594 
	C1748.922241,600.867798 1750.988647,605.443787 1752.594849,610.147400 
	C1759.804932,631.262268 1766.914062,652.412109 1774.248291,673.483582 
	C1775.227295,676.296326 1775.350464,677.772461 1772.370972,679.342712 
	C1761.835205,684.895325 1751.569092,690.966309 1740.967407,696.384155 
	C1737.421021,698.196472 1736.200439,700.114990 1737.357300,703.772705 
	C1781.270508,703.772705 1825.038330,703.772705 1868.812744,703.772705 
	C1868.812744,701.762695 1868.812744,699.981628 1868.812744,698.373230 
	C1852.442749,691.537109 1836.360107,684.605469 1820.065552,678.214294 
	C1817.122070,677.059875 1815.475098,675.585083 1814.510620,673.003723 
	C1811.928101,666.091064 1809.544312,659.104248 1806.964844,652.190491 
	C1799.448486,632.044006 1791.869385,611.920959 1784.325684,591.784668 
	C1774.869873,566.544250 1765.462891,541.285461 1755.963257,516.061462 
	C1747.705566,494.135040 1739.348511,472.246033 1730.996094,449.534668 
M1215.035278,435.319122 
	C1215.022827,434.986328 1215.063965,434.641083 1214.990112,434.322479 
	C1210.478516,414.859314 1205.993164,395.389923 1201.413086,375.942841 
	C1200.215820,370.858856 1198.722168,365.844696 1197.259155,360.406647 
	C1193.964478,361.883820 1191.692627,363.099304 1189.290039,363.942322 
	C1182.355347,366.375580 1175.384033,370.635956 1168.398682,370.692749 
	C1104.072510,371.216003 1039.740234,371.017029 975.409790,370.936035 
	C973.232849,370.933289 970.967224,370.190552 968.896973,369.392914 
	C961.605530,366.583527 954.381348,363.599609 946.900879,360.589020 
	C937.949036,400.718567 929.289795,439.536530 920.630493,478.354462 
	C927.197998,470.723328 932.621399,462.753387 938.007446,454.758148 
	C951.905823,434.126648 965.811707,413.500061 979.638855,392.820862 
	C981.029663,390.740936 982.458374,389.896637 985.094055,389.914185 
	C1006.925415,390.059479 1028.758179,389.992279 1050.590576,390.011047 
	C1051.687622,390.011993 1052.784424,390.212982 1053.908325,390.323456 
	C1053.908325,485.614532 1053.908325,580.589905 1053.908325,675.570374 
	C1037.546021,683.197937 1021.259155,690.790344 1005.140381,698.304443 
	C1005.140381,700.338074 1005.140381,701.965698 1005.140381,703.680542 
	C1049.822632,703.680542 1094.369019,703.680542 1138.828125,703.680542 
	C1139.286743,700.296631 1139.210083,697.775208 1135.620605,696.170654 
	C1120.677002,689.490662 1105.856812,682.534790 1091.322021,675.832642 
	C1091.322021,580.296021 1091.322021,485.219543 1091.322021,389.996643 
	C1113.298950,389.996643 1134.955444,390.188904 1156.603760,389.852325 
	C1161.593628,389.774719 1164.407959,391.268890 1167.076904,395.401550 
	C1180.993774,416.950836 1195.196533,438.315887 1209.346558,459.714111 
	C1212.547363,464.554504 1215.933960,469.272064 1219.234985,474.046143 
	C1219.769653,473.993256 1220.304199,473.940369 1220.838745,473.887482 
	C1221.229492,470.862152 1222.399292,467.692017 1221.868896,464.837830 
	C1220.073730,455.177917 1217.676270,445.629913 1215.035278,435.319122 
M145.988724,396.510498 
	C157.291443,390.336517 168.670532,384.294800 179.820709,377.856628 
	C181.650742,376.799927 182.473770,373.999207 184.280899,371.201477 
	C139.070343,371.201477 95.630753,371.201477 51.061901,371.201477 
	C52.309521,373.415894 52.906193,375.277191 54.135975,376.503693 
	C57.513790,379.872437 61.154655,382.977753 64.696350,386.181854 
	C71.780266,392.590729 78.706039,399.191101 86.059448,405.274445 
	C88.061844,406.930939 89.057373,408.123169 89.055283,410.729919 
	C88.988380,494.221771 89.009132,577.713684 88.935059,661.205505 
	C88.933609,662.840698 88.357079,664.783447 87.371544,666.059631 
	C81.003395,674.305725 74.158684,682.198975 68.080116,690.646667 
	C65.272316,694.548889 59.165543,697.090820 61.394669,703.999390 
	C63.165176,703.999390 64.975288,703.999451 66.785400,703.999451 
	C125.279732,703.998779 183.774078,704.013184 242.268341,703.955811 
	C245.447861,703.952637 247.546097,704.509094 249.482208,707.623962 
	C251.960220,711.610718 255.525055,714.996277 258.976990,718.265503 
	C260.286560,719.505676 262.584229,719.702576 264.414917,720.368958 
	C266.355042,708.546021 268.248138,697.511475 269.962219,686.449158 
	C272.697449,668.796875 275.412292,651.139954 277.900665,633.451965 
	C278.427185,629.709229 278.974152,625.456665 274.208130,623.204773 
	C262.152222,640.758362 249.961441,658.252625 238.097672,675.966003 
	C235.209106,680.278748 232.284927,682.229675 226.749527,682.170837 
	C194.589600,681.829407 162.424194,682.002686 130.260651,682.001953 
	C128.638214,682.001953 127.015762,682.001953 124.999184,682.001953 
	C124.999184,680.344482 124.999191,679.048218 124.999191,677.751953 
	C124.999199,589.260498 124.999199,500.769104 124.999382,412.277679 
	C124.999390,411.444427 124.790253,410.535248 125.055389,409.796692 
	C125.407150,408.816864 125.913742,407.587067 126.727928,407.127380 
	C132.891159,403.647797 139.145981,400.330505 145.988724,396.510498 
z"/>
<path fill="#FEFFFF" opacity="1.000000" stroke="none" 
	d="
M1274.955566,511.890503 
	C1274.971558,477.229309 1274.894653,442.567474 1275.141235,407.907928 
	C1275.166992,404.273529 1273.251343,402.909698 1270.972046,401.543610 
	C1257.995850,393.766357 1245.002075,386.014160 1231.874146,378.498169 
	C1228.869141,376.777802 1227.261230,374.955536 1228.359985,371.003052 
	C1229.743286,371.003052 1231.364746,371.003052 1232.986206,371.003052 
	C1285.645020,371.002838 1338.313232,370.416840 1390.958862,371.250305 
	C1417.164917,371.665222 1442.439209,378.181763 1463.662354,394.527283 
	C1479.074097,406.397064 1488.800293,422.551575 1491.925537,442.077209 
	C1493.033936,449.002716 1493.887817,456.057343 1493.899170,463.054626 
	C1493.946411,491.991425 1482.182129,515.015198 1458.115112,531.288208 
	C1443.935181,540.875977 1428.050293,546.362000 1411.172607,549.031189 
	C1410.576416,549.125488 1410.033569,549.557617 1409.067139,550.025269 
	C1414.177368,561.015991 1419.219482,571.867676 1424.267700,582.716614 
	C1438.845337,614.045471 1453.271484,645.447205 1468.251221,676.582581 
	C1469.686279,679.565308 1474.360229,681.406372 1477.903564,682.882019 
	C1489.746826,687.813843 1501.828125,692.178345 1513.627075,697.208069 
	C1515.233643,697.892944 1515.754639,701.124390 1517.091553,703.804810 
	C1480.925415,703.804810 1446.148315,703.804810 1410.068359,703.804810 
	C1411.316040,701.225403 1411.830078,698.764160 1413.327759,697.330200 
	C1417.695679,693.148438 1422.566162,689.494080 1426.980347,685.356506 
	C1427.989136,684.410950 1428.726196,682.063721 1428.271729,680.857483 
	C1426.071045,675.015991 1423.521240,669.297974 1420.913940,663.619263 
	C1410.920898,641.854248 1400.831055,620.133606 1390.831177,598.371704 
	C1383.783325,583.034241 1376.822510,567.656860 1369.762451,552.165100 
	C1350.323486,552.165100 1330.896729,552.165100 1310.994995,552.165100 
	C1310.994995,553.926392 1310.994995,555.538330 1310.994995,557.150208 
	C1310.994995,596.144409 1311.038208,635.138733 1310.925781,674.132629 
	C1310.914917,677.916565 1311.838257,679.716736 1315.744019,681.177734 
	C1329.877197,686.464355 1343.766724,692.401733 1357.845215,698.132874 
	C1357.845215,700.006042 1357.845215,701.793396 1357.845215,703.790649 
	C1314.646851,703.790649 1271.541138,703.790649 1228.370239,703.790649 
	C1227.242310,700.351929 1228.396851,698.370728 1231.728271,696.977356 
	C1244.175903,691.770752 1256.394043,685.974731 1269.015015,681.245239 
	C1273.239136,679.662231 1274.079590,677.841309 1274.070190,673.895935 
	C1273.968994,631.569397 1274.016724,589.242493 1274.353760,546.128662 
	C1274.774292,534.191223 1274.864868,523.040894 1274.955566,511.890503 
M1325.504761,531.000000 
	C1344.259888,530.667603 1363.015503,530.361084 1381.770020,529.994385 
	C1396.045898,529.715271 1409.143921,525.017578 1421.140137,517.836060 
	C1432.034912,511.313965 1440.751465,502.323517 1446.046265,490.379211 
	C1452.634277,475.517181 1453.303711,460.160614 1449.935303,444.569580 
	C1446.140869,427.007111 1436.719971,413.162170 1421.245972,403.712311 
	C1405.979004,394.388947 1389.104370,391.157227 1371.510132,391.029663 
	C1352.844482,390.894348 1334.177002,390.994659 1315.510376,391.009583 
	C1314.073120,391.010742 1312.635864,391.150696 1311.284790,391.221588 
	C1311.284790,437.974274 1311.284790,484.379791 1311.284790,531.000000 
	C1315.884277,531.000000 1320.196045,531.000000 1325.504761,531.000000 
z"/>
<path fill="#FEFFFE" opacity="1.000000" stroke="none" 
	d="
M570.014893,618.057861 
	C562.444580,635.405029 553.298401,651.192017 540.645508,665.100403 
	C524.176331,683.203796 504.389801,695.828674 481.509705,703.599182 
	C469.854187,707.557617 457.609802,709.108032 445.225220,710.224426 
	C425.013580,712.046387 405.591156,709.078064 386.626923,702.867737 
	C369.270508,697.183960 353.927551,687.840637 340.038544,675.743286 
	C323.498474,661.336914 311.338867,643.846863 302.244873,624.276001 
	C295.054321,608.801331 290.689545,592.351135 287.759186,575.386963 
	C284.664246,557.470093 284.132050,539.495422 285.245483,521.617065 
	C287.038086,492.833160 294.454102,465.323486 308.578339,439.886688 
	C319.333252,420.517853 333.368744,404.211792 351.219452,390.826660 
	C368.002106,378.242432 386.726868,370.462646 406.864105,366.287445 
	C421.506622,363.251556 436.519745,363.195984 451.571106,364.851074 
	C468.649384,366.729065 484.839294,371.250580 499.993805,379.093048 
	C525.051941,392.060638 544.347107,411.266235 558.778992,435.401154 
	C570.565247,455.111755 578.330261,476.511902 581.664124,499.062592 
	C584.157837,515.929749 585.129028,533.219727 584.708557,550.270447 
	C584.168762,572.160034 579.343689,593.548828 571.918945,614.239807 
	C571.484680,615.450073 570.670959,616.524170 570.014893,618.057861 
M373.513794,406.986206 
	C359.654877,419.210693 350.323456,434.672455 343.371277,451.423828 
	C332.602844,477.370392 329.084015,504.921997 328.169647,532.746521 
	C327.803680,543.883789 329.442780,555.077942 329.967377,566.255676 
	C330.663818,581.094604 333.772949,595.499023 338.078430,609.608826 
	C344.868958,631.862732 355.578033,651.745667 373.081970,667.774780 
	C389.719177,683.010132 409.570618,689.465088 431.395660,690.891663 
	C442.516693,691.618591 453.532135,689.722717 464.168732,686.352295 
	C490.522491,678.001526 508.358582,659.808350 520.945679,636.008545 
	C534.038147,611.253113 539.246582,584.269531 540.815002,556.695312 
	C542.135620,533.478027 541.482422,510.133423 536.868164,487.226135 
	C532.889282,467.473114 526.789001,448.333374 515.998840,431.038513 
	C508.493042,419.007935 499.605988,408.164154 487.859222,400.006470 
	C466.422546,385.119537 442.843201,380.155762 417.159088,384.970764 
	C400.709473,388.054565 386.281128,395.065369 373.513794,406.986206 
z"/>
<path fill="#FEFFFF" opacity="1.000000" stroke="none" 
	d="
M582.485352,374.948914 
	C582.176025,373.546112 582.176025,372.413513 582.176025,371.167694 
	C622.767761,371.167694 663.228149,371.167694 705.334839,371.167694 
	C703.636719,373.756622 702.870972,376.007355 701.299500,377.147827 
	C689.255371,385.888214 677.081909,394.451904 664.880493,402.972900 
	C662.266235,404.798645 660.916199,406.780701 660.921997,410.214355 
	C661.027161,472.045074 660.428589,533.883911 661.286377,595.702942 
	C661.615479,619.420349 668.194580,641.914673 684.152649,660.802673 
	C696.987122,675.993713 713.264954,684.842468 732.545044,687.821533 
	C743.389160,689.497131 754.615845,690.606812 765.498413,689.761169 
	C797.085571,687.306519 822.105591,673.667542 837.219177,644.503296 
	C843.698547,632.000305 847.762634,618.878601 848.953064,604.912598 
	C849.874817,594.098938 850.871338,583.248047 850.911621,572.410217 
	C851.110474,518.913086 850.958008,465.414673 851.087158,411.917084 
	C851.097351,407.701904 849.479919,405.459869 846.001160,403.384796 
	C831.469055,394.716461 817.058838,385.839325 802.760254,376.791687 
	C801.444824,375.959381 801.237183,373.376495 800.337585,371.170959 
	C840.792480,371.170959 880.244751,371.170959 921.488831,371.170959 
	C919.522217,373.930603 918.621277,376.328033 916.893127,377.441254 
	C902.665466,386.606201 888.244995,395.471802 874.009521,404.624939 
	C872.576599,405.546295 871.124939,407.768555 871.121094,409.390533 
	C870.974915,470.721100 870.692566,532.054749 871.236267,593.380859 
	C871.355713,606.851318 878.183533,618.036865 891.143311,623.881470 
	C894.487244,625.389526 898.690002,624.993103 902.871826,625.518494 
	C886.186401,643.136902 870.084900,660.959656 850.908325,675.771362 
	C835.695557,687.521362 819.513550,697.238831 801.251892,703.239624 
	C789.202393,707.199219 776.836304,709.214722 764.083374,710.226562 
	C739.677612,712.163086 716.327026,708.303772 694.177124,698.701172 
	C682.156128,693.489685 670.863586,686.251282 659.973633,678.851135 
	C638.139038,664.013794 620.925720,644.022949 601.517273,625.025146 
	C607.976624,625.139038 614.287415,626.002014 617.228577,620.063782 
	C620.100403,614.265381 623.448730,607.952087 623.710083,601.743713 
	C624.750549,577.023804 624.855469,552.257324 624.957092,527.506653 
	C625.118591,488.175537 624.969116,448.843201 625.056946,409.511597 
	C625.064270,406.216217 624.088562,404.375519 621.170410,402.444519 
	C608.909607,394.331238 596.950317,385.761749 584.903809,377.326172 
	C584.102112,376.764740 583.493286,375.927856 582.485352,374.948914 
z"/>
<path fill="#FEFFFE" opacity="1.000000" stroke="none" 
	d="
M1731.015625,449.937622 
	C1739.348511,472.246033 1747.705566,494.135040 1755.963257,516.061462 
	C1765.462891,541.285461 1774.869873,566.544250 1784.325684,591.784668 
	C1791.869385,611.920959 1799.448486,632.044006 1806.964844,652.190491 
	C1809.544312,659.104248 1811.928101,666.091064 1814.510620,673.003723 
	C1815.475098,675.585083 1817.122070,677.059875 1820.065552,678.214294 
	C1836.360107,684.605469 1852.442749,691.537109 1868.812744,698.373230 
	C1868.812744,699.981628 1868.812744,701.762695 1868.812744,703.772705 
	C1825.038330,703.772705 1781.270508,703.772705 1737.357300,703.772705 
	C1736.200439,700.114990 1737.421021,698.196472 1740.967407,696.384155 
	C1751.569092,690.966309 1761.835205,684.895325 1772.370972,679.342712 
	C1775.350464,677.772461 1775.227295,676.296326 1774.248291,673.483582 
	C1766.914062,652.412109 1759.804932,631.262268 1752.594849,610.147400 
	C1750.988647,605.443787 1748.922241,600.867798 1747.702148,596.071594 
	C1746.806885,592.552185 1745.076538,591.913635 1741.768921,591.925354 
	C1707.441162,592.046936 1673.113037,592.000122 1638.784912,592.000122 
	C1634.790283,592.000122 1630.795654,592.000183 1626.482666,592.000183 
	C1617.108643,620.127136 1607.732666,648.260071 1598.183228,676.913269 
	C1601.174561,678.512817 1604.379761,680.313660 1607.660400,681.964539 
	C1616.890747,686.609375 1626.023315,691.483337 1635.462524,695.661621 
	C1639.425537,697.415955 1640.846313,699.516418 1639.701172,703.757690 
	C1604.112549,703.757690 1568.337280,703.757690 1532.287964,703.757690 
	C1531.305786,700.298523 1532.622070,698.296631 1535.843628,696.531494 
	C1548.682739,689.497009 1561.555054,682.484253 1573.986084,674.772278 
	C1576.853394,672.993530 1578.618896,668.693726 1579.882690,665.190186 
	C1594.194458,625.516724 1608.317261,585.775085 1622.475586,546.046326 
	C1635.720703,508.879700 1648.910522,471.693268 1662.208740,434.545654 
	C1665.559448,425.185394 1669.805420,416.099670 1672.456299,406.558838 
	C1673.434692,403.037750 1671.384766,398.437103 1670.045654,394.560303 
	C1667.331787,386.702637 1664.160645,379.002869 1661.129395,371.111481 
	C1674.838745,371.111481 1688.157104,371.111481 1701.498779,371.111481 
	C1711.353760,397.312531 1721.174927,423.423584 1731.015625,449.937622 
M1680.487549,446.007568 
	C1680.205444,446.929077 1679.968750,447.867432 1679.634521,448.769623 
	C1669.613281,475.820740 1659.585815,502.869537 1649.551880,529.915894 
	C1644.387329,543.836548 1639.208496,557.752014 1634.029785,571.687012 
	C1668.839111,571.687012 1703.360352,571.687012 1738.520020,571.687012 
	C1720.754272,525.537781 1703.179443,479.883942 1685.199097,433.177002 
	C1683.563843,437.871368 1682.261719,441.609894 1680.487549,446.007568 
z"/>
<path fill="#FEFFFF" opacity="1.000000" stroke="none" 
	d="
M1215.272217,435.679138 
	C1217.676270,445.629913 1220.073730,455.177917 1221.868896,464.837830 
	C1222.399292,467.692017 1221.229492,470.862152 1220.838745,473.887482 
	C1220.304199,473.940369 1219.769653,473.993256 1219.234985,474.046143 
	C1215.933960,469.272064 1212.547363,464.554504 1209.346558,459.714111 
	C1195.196533,438.315887 1180.993774,416.950836 1167.076904,395.401550 
	C1164.407959,391.268890 1161.593628,389.774719 1156.603760,389.852325 
	C1134.955444,390.188904 1113.298950,389.996643 1091.322021,389.996643 
	C1091.322021,485.219543 1091.322021,580.296021 1091.322021,675.832642 
	C1105.856812,682.534790 1120.677002,689.490662 1135.620605,696.170654 
	C1139.210083,697.775208 1139.286743,700.296631 1138.828125,703.680542 
	C1094.369019,703.680542 1049.822632,703.680542 1005.140381,703.680542 
	C1005.140381,701.965698 1005.140381,700.338074 1005.140381,698.304443 
	C1021.259155,690.790344 1037.546021,683.197937 1053.908325,675.570374 
	C1053.908325,580.589905 1053.908325,485.614532 1053.908325,390.323456 
	C1052.784424,390.212982 1051.687622,390.011993 1050.590576,390.011047 
	C1028.758179,389.992279 1006.925415,390.059479 985.094055,389.914185 
	C982.458374,389.896637 981.029663,390.740936 979.638855,392.820862 
	C965.811707,413.500061 951.905823,434.126648 938.007446,454.758148 
	C932.621399,462.753387 927.197998,470.723328 920.630493,478.354462 
	C929.289795,439.536530 937.949036,400.718567 946.900879,360.589020 
	C954.381348,363.599609 961.605530,366.583527 968.896973,369.392914 
	C970.967224,370.190552 973.232849,370.933289 975.409790,370.936035 
	C1039.740234,371.017029 1104.072510,371.216003 1168.398682,370.692749 
	C1175.384033,370.635956 1182.355347,366.375580 1189.290039,363.942322 
	C1191.692627,363.099304 1193.964478,361.883820 1197.259155,360.406647 
	C1198.722168,365.844696 1200.215820,370.858856 1201.413086,375.942841 
	C1205.993164,395.389923 1210.478516,414.859314 1214.990112,434.322479 
	C1215.063965,434.641083 1215.022827,434.986328 1215.272217,435.679138 
z"/>
<path fill="#FEFFFE" opacity="1.000000" stroke="none" 
	d="
M145.680481,396.736511 
	C139.145981,400.330505 132.891159,403.647797 126.727928,407.127380 
	C125.913742,407.587067 125.407150,408.816864 125.055389,409.796692 
	C124.790253,410.535248 124.999390,411.444427 124.999382,412.277679 
	C124.999199,500.769104 124.999199,589.260498 124.999191,677.751953 
	C124.999191,679.048218 124.999184,680.344482 124.999184,682.001953 
	C127.015762,682.001953 128.638214,682.001953 130.260651,682.001953 
	C162.424194,682.002686 194.589600,681.829407 226.749527,682.170837 
	C232.284927,682.229675 235.209106,680.278748 238.097672,675.966003 
	C249.961441,658.252625 262.152222,640.758362 274.208130,623.204773 
	C278.974152,625.456665 278.427185,629.709229 277.900665,633.451965 
	C275.412292,651.139954 272.697449,668.796875 269.962219,686.449158 
	C268.248138,697.511475 266.355042,708.546021 264.414917,720.368958 
	C262.584229,719.702576 260.286560,719.505676 258.976990,718.265503 
	C255.525055,714.996277 251.960220,711.610718 249.482208,707.623962 
	C247.546097,704.509094 245.447861,703.952637 242.268341,703.955811 
	C183.774078,704.013184 125.279732,703.998779 66.785400,703.999451 
	C64.975288,703.999451 63.165176,703.999390 61.394669,703.999390 
	C59.165543,697.090820 65.272316,694.548889 68.080116,690.646667 
	C74.158684,682.198975 81.003395,674.305725 87.371544,666.059631 
	C88.357079,664.783447 88.933609,662.840698 88.935059,661.205505 
	C89.009132,577.713684 88.988380,494.221771 89.055283,410.729919 
	C89.057373,408.123169 88.061844,406.930939 86.059448,405.274445 
	C78.706039,399.191101 71.780266,392.590729 64.696350,386.181854 
	C61.154655,382.977753 57.513790,379.872437 54.135975,376.503693 
	C52.906193,375.277191 52.309521,373.415894 51.061901,371.201477 
	C95.630753,371.201477 139.070343,371.201477 184.280899,371.201477 
	C182.473770,373.999207 181.650742,376.799927 179.820709,377.856628 
	C168.670532,384.294800 157.291443,390.336517 145.680481,396.736511 
z"/>
<path fill="#E9F1FF" opacity="1.000000" stroke="none" 
	d="
M1274.575317,512.115234 
	C1274.864868,523.040894 1274.774292,534.191223 1274.425781,545.664062 
	C1274.177002,534.770996 1274.186035,523.555481 1274.575317,512.115234 
z"/>
<path fill="#000000" opacity="1.000000" stroke="none" 
	d="
M1325.006348,531.000000 
	C1320.196045,531.000000 1315.884277,531.000000 1311.284790,531.000000 
	C1311.284790,484.379791 1311.284790,437.974274 1311.284790,391.221588 
	C1312.635864,391.150696 1314.073120,391.010742 1315.510376,391.009583 
	C1334.177002,390.994659 1352.844482,390.894348 1371.510132,391.029663 
	C1389.104370,391.157227 1405.979004,394.388947 1421.245972,403.712311 
	C1436.719971,413.162170 1446.140869,427.007111 1449.935303,444.569580 
	C1453.303711,460.160614 1452.634277,475.517181 1446.046265,490.379211 
	C1440.751465,502.323517 1432.034912,511.313965 1421.140137,517.836060 
	C1409.143921,525.017578 1396.045898,529.715271 1381.770020,529.994385 
	C1363.015503,530.361084 1344.259888,530.667603 1325.006348,531.000000 
z"/>
<path fill="#000000" opacity="1.000000" stroke="none" 
	d="
M373.762848,406.729797 
	C386.281128,395.065369 400.709473,388.054565 417.159088,384.970764 
	C442.843201,380.155762 466.422546,385.119537 487.859222,400.006470 
	C499.605988,408.164154 508.493042,419.007935 515.998840,431.038513 
	C526.789001,448.333374 532.889282,467.473114 536.868164,487.226135 
	C541.482422,510.133423 542.135620,533.478027 540.815002,556.695312 
	C539.246582,584.269531 534.038147,611.253113 520.945679,636.008545 
	C508.358582,659.808350 490.522491,678.001526 464.168732,686.352295 
	C453.532135,689.722717 442.516693,691.618591 431.395660,690.891663 
	C409.570618,689.465088 389.719177,683.010132 373.081970,667.774780 
	C355.578033,651.745667 344.868958,631.862732 338.078430,609.608826 
	C333.772949,595.499023 330.663818,581.094604 329.967377,566.255676 
	C329.442780,555.077942 327.803680,543.883789 328.169647,532.746521 
	C329.084015,504.921997 332.602844,477.370392 343.371277,451.423828 
	C350.323456,434.672455 359.654877,419.210693 373.762848,406.729797 
z"/>
<path fill="#000000" opacity="1.000000" stroke="none" 
	d="
M1680.723511,445.677979 
	C1682.261719,441.609894 1683.563843,437.871368 1685.199097,433.177002 
	C1703.179443,479.883942 1720.754272,525.537781 1738.520020,571.687012 
	C1703.360352,571.687012 1668.839111,571.687012 1634.029785,571.687012 
	C1639.208496,557.752014 1644.387329,543.836548 1649.551880,529.915894 
	C1659.585815,502.869537 1669.613281,475.820740 1679.634521,448.769623 
	C1679.968750,447.867432 1680.205444,446.929077 1680.723511,445.677979 
z"/>
</svg>